<?xml version="1.0" encoding="utf-8"?>
<!-- Generator: Adobe Illustrator 25.0.0, SVG Export Plug-In . SVG Version: 6.00 Build 0)  -->
<svg version="1.1" xmlns="http://www.w3.org/2000/svg" xmlns:xlink="http://www.w3.org/1999/xlink" x="0px" y="0px"
	 viewBox="0 0 85 25" style="enable-background:new 0 0 85 25;" xml:space="preserve">
<style type="text/css">
	.st0{fill:#3A3A3A;}
	.st1{fill:#E0E0E0;}
	.st2{fill:#604F36;}
</style>
<g id="Capa_2">
</g>
<g id="Capa_1">
	<path class="st0" d="M41.2,9.1c0,0.1,0,0.3,0,0.4l-1.8,8.9c0,0.1,0,0.1,0,0.2c-0.5,2.4-1.8,3.9-3,4.7c-0.1,0.1-0.2,0.1-0.3,0.2
		l-0.3,0.2c-0.1,0.1-0.2,0.1-0.3,0.2c-0.1,0-0.1,0.1-0.2,0.1c-0.1,0.1-0.3,0.1-0.4,0.2c-0.1,0.1-0.3,0.1-0.4,0.2c0,0,0,0,0,0
		c-0.3,0.1-0.7,0.2-1,0.3c0,0,0,0-0.1,0c-0.1,0-0.3,0.1-0.4,0.1c0,0-0.1,0-0.1,0c-0.2,0-0.3,0-0.5,0.1c-7.1,0.8-7.5-3.6-7.5-3.6
		c-0.2-0.8-0.1-2.1,0.1-3c0-0.2,0.1-0.4,0.1-0.5c0,0,0-0.1,0-0.1c0.1-0.3,0.1-0.4,0.1-0.4l1.6-8.2c0.2-1.2,1.4-2,2.6-1.8
		c0.1,0,0.3,0.1,0.4,0.1c0,0,0,0,0,0c0.3,0.1,0.6,0.3,0.8,0.6c0,0,0,0,0,0c0.2,0.3,0.4,0.9,0.2,1.7L29,18.1c0,0-1.1,4,3.4,3
		c0,0,2.4-0.3,2.8-4L37,9c0,0,1.1-2.9,3.5-1.5C40.9,7.9,41.2,8.5,41.2,9.1z"/>
	<path class="st1" d="M33,25.1c-0.2,0-0.3,0.1-0.4,0.1C32.8,25.2,32.9,25.2,33,25.1z"/>
	<path class="st1" d="M34.1,24.9c-0.4,0.1-0.7,0.2-1,0.3C33.4,25.1,33.8,25,34.1,24.9z"/>
	<path class="st0" d="M42.1,9.1l-2.7,13.5c0,0-0.5,2.7,2.2,2.1c0,0,1.4-0.1,1.9-2.4l1.6-7.8l3.9,8.5c0,0,1.1,2.9,3.9,1.3
		c0,0,1-0.4,1.3-3.1l2.4-12.7c0,0-0.1-1.2-1.3-1.4c0,0-1.8-0.3-2.3,1.2l-2,9.2l-4.6-9.7c0,0-0.3-1-2.3-0.6
		C43.9,7.3,42.5,7.7,42.1,9.1z"/>
	<path class="st2" d="M67.9,15.4h-7.9c0.3-1.4,1.9-2.5,3.9-2.5C66,12.9,67.6,14,67.9,15.4z"/>
	<path class="st2" d="M67.9,16.2c-0.2,1.4-1.9,2.5-3.9,2.5c-2,0-3.7-1.1-3.9-2.5H67.9z"/>
	<path class="st0" d="M60.4,7.1c0,0-2.4-0.4-2.9,1.9l-2.7,13.1c0,0-0.5,2.4,1.7,2.4h9.9c0,0,1.6-0.1,1.6-2.1c0,0,0.1-1.3-1.5-1.4
		l-7.3,0l2-10.1H72l2.2,4.8L68.8,22c0,0-1.4,2.5,0.7,2.9c0,0,1.4,0.5,2.7-1.2l3.9-4.5l2,4.5c0,0,1.1,2.6,3.5,0.5c0,0,1.3-0.9,0-3.1
		l-2.4-5.1l5-5.8c0,0,1.4-1.8-0.3-2.6c0,0-1.1-0.8-2.5,0.6l-4,4.6l-2-4.5c0,0-0.1-0.5-1.1-0.9c0,0-0.4-0.1-1.2-0.1L60.4,7.1z"/>
	<path class="st1" d="M21,20l0,0.1h0C21,20.1,21,20,21,20z"/>
	<path class="st0" d="M18.2,10L18.2,10c0,0-1,6-1.5,6.9c0,0-1.1,3.5-3.6,1c0,0-0.5-0.6-0.5-1.5c0,0,1.4,0.1,2.2-1
		c0.3-0.4,0.5-0.9,0.7-1.4c0.4-1,0.5-2.2,0.2-3.3c0,0-0.1-1-1.2-1.6h0c-0.1,0-0.1,0-0.2-0.1c0,0,0,0,0,0c0,0,0,0,0-0.1
		c0,0,0-0.1-0.1-0.2v0c0-0.1,0-0.1,0-0.2v0c-0.2-1.7-1.4-3.1-2.9-3.1c-1.1,0-2,0.7-2.5,1.8L8.5,8.8l0,0.1l-1.1,4.9L4.8,25L0,18.3
		l2.1-0.1L4.6,7.1h0C5.1,3.5,8,0.8,11.5,0.8c3.8,0,7,3.2,7,7.2C18.5,8.7,18.4,9.4,18.2,10z"/>
	<path class="st1" d="M21.4,18.5c-0.1,0.5-0.2,1-0.3,1.5c0,0,0,0,0,0l0,0L21.4,18.5z"/>
	<path class="st0" d="M26.3,6.9l-2.2,0l-2.7,11.6v0L21.1,20l0,0c0,0,0,0.1-0.1,0.1c-1,2.5-3.4,4.2-6.3,4.2c-3.1,0-5.7-2-6.5-4.8h0
		c0,0-0.3-0.8-0.3-2.9c0-1,0.1-2.2,0.4-3.7c0,0,0.7-4.3,1.3-5.3c0,0,0,0,0.1-0.1C9.7,7.4,10,7,10.2,6.8c0,0,0,0,0.1-0.1
		c0.5-0.5,1.4-0.8,2.6,0.3c0,0,0.9,0.9,0.6,1.9c0,0-1.6-0.2-2.7,1.8c0,0-0.4,0.9-0.5,1.9c0,0,0,0.1,0,0.1c-0.1,0.6,0,1.3,0.2,2
		c0,0,0.3,0.8,1.3,1.6c0,0,0.1,2.8,2.3,3.3c0,0,0.3,0.1,0.7,0.1c0,0,0.1,0,0.1,0c0.1,0,0.1,0,0.2,0c0.5-0.1,1.1-0.3,1.7-1
		c0,0,0.8-0.7,1.2-3.3l0.6-2.9L21.3,0L26.3,6.9z"/>
	<path class="st2" d="M13.5,9.5l-1.3,6.2c-1.1-0.4-1.6-1.9-1.3-3.5C11.2,10.6,12.3,9.4,13.5,9.5z"/>
	<path class="st2" d="M14.1,9.6c1.1,0.4,1.7,1.9,1.3,3.5c-0.3,1.6-1.5,2.7-2.6,2.7L14.1,9.6z"/>
	<path class="st1" d="M14.2,8.1"/>
</g>
</svg>
